<?xml version="1.0" encoding="UTF-8" standalone="no"?><svg xmlns="http://www.w3.org/2000/svg" xmlns:xlink="http://www.w3.org/1999/xlink" contentScriptType="application/ecmascript" contentStyleType="text/css" height="496px" preserveAspectRatio="none" style="width:2861px;height:496px;" version="1.1" viewBox="0 0 2861 496" width="2861px" zoomAndPan="magnify"><defs><filter height="300%" id="f102hiuga5xwe0" width="300%" x="-1" y="-1"><feGaussianBlur result="blurOut" stdDeviation="2.0"/><feColorMatrix in="blurOut" result="blurOut2" type="matrix" values="0 0 0 0 0 0 0 0 0 0 0 0 0 0 0 0 0 0 .4 0"/><feOffset dx="4.0" dy="4.0" in="blurOut2" result="blurOut3"/><feBlend in="SourceGraphic" in2="blurOut3" mode="normal"/></filter></defs><g><!--MD5=[859879ff568c79000df1599f6f91f5e7]
cluster queuetodo::localization.dart--><polygon fill="#FFFFFF" filter="url(#f102hiuga5xwe0)" points="22,179,251,179,258,201.2969,446,201.2969,446,329,22,329,22,179" style="stroke: #000000; stroke-width: 1.5;"/><line style="stroke: #000000; stroke-width: 1.5;" x1="22" x2="258" y1="201.2969" y2="201.2969"/><text fill="#000000" font-family="sans-serif" font-size="14" font-weight="bold" lengthAdjust="spacingAndGlyphs" textLength="223" x="26" y="193.9951">queuetodo::localization.dart</text><!--MD5=[08476f465fe0fbcb767418b9a437dfe1]
cluster flutter::src::widgets::localizations.dart--><polygon fill="#FFFFFF" filter="url(#f102hiuga5xwe0)" points="188,24,501,24,508,46.2969,511,46.2969,511,123,188,123,188,24" style="stroke: #000000; stroke-width: 1.5;"/><line style="stroke: #000000; stroke-width: 1.5;" x1="188" x2="508" y1="46.2969" y2="46.2969"/><text fill="#000000" font-family="sans-serif" font-size="14" font-weight="bold" lengthAdjust="spacingAndGlyphs" textLength="307" x="192" y="38.9951">flutter::src::widgets::localizations.dart</text><!--MD5=[38be18612ed71996bdf82b0e8a8b954f]
cluster dart::ui--><polygon fill="#FFFFFF" filter="url(#f102hiuga5xwe0)" points="84,385,148,385,155,407.2969,188,407.2969,188,484,84,484,84,385" style="stroke: #000000; stroke-width: 1.5;"/><line style="stroke: #000000; stroke-width: 1.5;" x1="84" x2="155" y1="407.2969" y2="407.2969"/><text fill="#000000" font-family="sans-serif" font-size="14" font-weight="bold" lengthAdjust="spacingAndGlyphs" textLength="58" x="88" y="399.9951">dart::ui</text><!--MD5=[e79c50777c20896252b56f5f0aa76a92]
cluster queuetodo::tabs::queue_display.dart--><polygon fill="#FFFFFF" filter="url(#f102hiuga5xwe0)" points="470,147,769,147,776,169.2969,925,169.2969,925,361,470,361,470,147" style="stroke: #000000; stroke-width: 1.5;"/><line style="stroke: #000000; stroke-width: 1.5;" x1="470" x2="776" y1="169.2969" y2="169.2969"/><text fill="#000000" font-family="sans-serif" font-size="14" font-weight="bold" lengthAdjust="spacingAndGlyphs" textLength="293" x="474" y="161.9951">queuetodo::tabs::queue_display.dart</text><!--MD5=[1b91236ccc4e258431d00b8b19fdf6ca]
cluster flutter::src::widgets::framework.dart--><polygon fill="#FFFFFF" filter="url(#f102hiuga5xwe0)" points="1223,24,1525,24,1532,46.2969,1677,46.2969,1677,123,1223,123,1223,24" style="stroke: #000000; stroke-width: 1.5;"/><line style="stroke: #000000; stroke-width: 1.5;" x1="1223" x2="1532" y1="46.2969" y2="46.2969"/><text fill="#000000" font-family="sans-serif" font-size="14" font-weight="bold" lengthAdjust="spacingAndGlyphs" textLength="296" x="1227" y="38.9951">flutter::src::widgets::framework.dart</text><!--MD5=[cae560c4ea20adaf344e0acdd87a0520]
cluster dart::collection--><polygon fill="#FFFFFF" filter="url(#f102hiuga5xwe0)" points="494,385,620,385,627,407.2969,648,407.2969,648,484,494,484,494,385" style="stroke: #000000; stroke-width: 1.5;"/><line style="stroke: #000000; stroke-width: 1.5;" x1="494" x2="627" y1="407.2969" y2="407.2969"/><text fill="#000000" font-family="sans-serif" font-size="14" font-weight="bold" lengthAdjust="spacingAndGlyphs" textLength="120" x="498" y="399.9951">dart::collection</text><!--MD5=[2504ac27e0eae0ccedaa571491698656]
cluster queuetodo::tabs::usage.dart--><polygon fill="#FFFFFF" filter="url(#f102hiuga5xwe0)" points="1631,198,1866,198,1873,220.2969,1876,220.2969,1876,310,1631,310,1631,198" style="stroke: #000000; stroke-width: 1.5;"/><line style="stroke: #000000; stroke-width: 1.5;" x1="1631" x2="1873" y1="220.2969" y2="220.2969"/><text fill="#000000" font-family="sans-serif" font-size="14" font-weight="bold" lengthAdjust="spacingAndGlyphs" textLength="229" x="1635" y="212.9951">queuetodo::tabs::usage.dart</text><!--MD5=[dca2e427a8ec633f35e81d8105c0fc04]
cluster queuetodo::tabs::about.dart--><polygon fill="#FFFFFF" filter="url(#f102hiuga5xwe0)" points="1900,179,2132,179,2139,201.2969,2302,201.2969,2302,329,1900,329,1900,179" style="stroke: #000000; stroke-width: 1.5;"/><line style="stroke: #000000; stroke-width: 1.5;" x1="1900" x2="2139" y1="201.2969" y2="201.2969"/><text fill="#000000" font-family="sans-serif" font-size="14" font-weight="bold" lengthAdjust="spacingAndGlyphs" textLength="226" x="1904" y="193.9951">queuetodo::tabs::about.dart</text><!--MD5=[d68522f0224b3bd28c7b7af8f3d10efd]
cluster queuetodo::task.dart--><polygon fill="#FFFFFF" filter="url(#f102hiuga5xwe0)" points="949,147,1123,147,1130,169.2969,1607,169.2969,1607,361,949,361,949,147" style="stroke: #000000; stroke-width: 1.5;"/><line style="stroke: #000000; stroke-width: 1.5;" x1="949" x2="1130" y1="169.2969" y2="169.2969"/><text fill="#000000" font-family="sans-serif" font-size="14" font-weight="bold" lengthAdjust="spacingAndGlyphs" textLength="168" x="953" y="161.9951">queuetodo::task.dart</text><!--MD5=[e06b2be89d5a0e5a906fffa5e578fb31]
cluster flutter::src::widgets::editable_text.dart--><polygon fill="#FFFFFF" filter="url(#f102hiuga5xwe0)" points="1327,385,1644,385,1651,407.2969,1654,407.2969,1654,484,1327,484,1327,385" style="stroke: #000000; stroke-width: 1.5;"/><line style="stroke: #000000; stroke-width: 1.5;" x1="1327" x2="1651" y1="407.2969" y2="407.2969"/><text fill="#000000" font-family="sans-serif" font-size="14" font-weight="bold" lengthAdjust="spacingAndGlyphs" textLength="311" x="1331" y="399.9951">flutter::src::widgets::editable_text.dart</text><!--MD5=[4a9ad23522d4e5d2a16cd8c7e8285428]
cluster queuetodo::app.dart--><polygon fill="#FFFFFF" filter="url(#f102hiuga5xwe0)" points="2326,172.5,2496,172.5,2503,194.7969,2722,194.7969,2722,335.5,2326,335.5,2326,172.5" style="stroke: #000000; stroke-width: 1.5;"/><line style="stroke: #000000; stroke-width: 1.5;" x1="2326" x2="2503" y1="194.7969" y2="194.7969"/><text fill="#000000" font-family="sans-serif" font-size="14" font-weight="bold" lengthAdjust="spacingAndGlyphs" textLength="164" x="2330" y="187.4951">queuetodo::app.dart</text><!--MD5=[999cc6497a4be472901faaa3188478a1]
cluster flutter::src::material::tab_controller.dart--><polygon fill="#FFFFFF" filter="url(#f102hiuga5xwe0)" points="2504,385,2829,385,2836,407.2969,2839,407.2969,2839,484,2504,484,2504,385" style="stroke: #000000; stroke-width: 1.5;"/><line style="stroke: #000000; stroke-width: 1.5;" x1="2504" x2="2836" y1="407.2969" y2="407.2969"/><text fill="#000000" font-family="sans-serif" font-size="14" font-weight="bold" lengthAdjust="spacingAndGlyphs" textLength="319" x="2508" y="399.9951">flutter::src::material::tab_controller.dart</text><!--MD5=[d78ae5282bbbbc8574650f9b50d081e0]
cluster flutter::src::widgets::ticker_provider.dart--><polygon fill="#FFFFFF" filter="url(#f102hiuga5xwe0)" points="2450,24,2785,24,2792,46.2969,2795,46.2969,2795,123,2450,123,2450,24" style="stroke: #000000; stroke-width: 1.5;"/><line style="stroke: #000000; stroke-width: 1.5;" x1="2450" x2="2792" y1="46.2969" y2="46.2969"/><text fill="#000000" font-family="sans-serif" font-size="14" font-weight="bold" lengthAdjust="spacingAndGlyphs" textLength="329" x="2454" y="38.9951">flutter::src::widgets::ticker_provider.dart</text><!--MD5=[c58add17c455c234f7c42ebf05f7a399]
class queuetodo::localization.dart::LocalizationDelegate--><rect fill="#FEFECE" filter="url(#f102hiuga5xwe0)" height="86.4141" id="queuetodo::localization.dart::LocalizationDelegate" style="stroke: #A80036; stroke-width: 1.5;" width="161" x="268.5" y="220.5"/><ellipse cx="283.5" cy="236.5" fill="#ADD1B2" rx="11" ry="11" style="stroke: #A80036; stroke-width: 1.0;"/><path d="M285.8438,232.1719 L286.0156,232.25 C286.2344,231.9375 286.4375,231.8438 286.7344,231.8438 C287.0313,231.8438 287.3125,231.9844 287.4688,232.25 C287.5625,232.4063 287.5781,232.5313 287.5781,232.9688 L287.5781,234.3906 C287.5781,234.8125 287.5469,235 287.4375,235.1563 C287.2656,235.375 287,235.5156 286.7344,235.5156 C286.5156,235.5156 286.2813,235.4063 286.1406,235.2656 C286,235.1406 285.9688,235.0156 285.9063,234.6094 C285.8125,234.2031 285.6406,233.9844 285.1563,233.7031 C284.6875,233.4531 284.0781,233.2969 283.5,233.2969 C281.7656,233.2969 280.5156,234.6094 280.5156,236.3906 L280.5156,237.4844 C280.5156,239.1875 281.8125,240.2813 283.8594,240.2813 C284.625,240.2813 285.3125,240.1563 285.7344,239.8906 C285.9219,239.7969 285.9219,239.7969 286.375,239.3125 C286.5625,239.125 286.7656,239.0469 286.9844,239.0469 C287.4531,239.0469 287.8438,239.4375 287.8438,239.8906 C287.8438,240.2813 287.5156,240.7344 286.9375,241.1406 C286.1875,241.6875 285.0313,241.9844 283.8125,241.9844 C280.9219,241.9844 278.8125,240.0938 278.8125,237.5156 L278.8125,236.3906 C278.8125,233.6719 280.8125,231.5938 283.4375,231.5938 C284.3125,231.5938 284.9063,231.7344 285.8438,232.1719 Z "/><text fill="#000000" font-family="sans-serif" font-size="12" lengthAdjust="spacingAndGlyphs" textLength="129" x="297.5" y="240.6543">LocalizationDelegate</text><line style="stroke: #A80036; stroke-width: 1.5;" x1="269.5" x2="428.5" y1="252.5" y2="252.5"/><line style="stroke: #A80036; stroke-width: 1.5;" x1="269.5" x2="428.5" y1="260.5" y2="260.5"/><ellipse cx="279.5" cy="271.5" fill="#84BE84" rx="3" ry="3" style="stroke: #038048; stroke-width: 1.0;"/><text fill="#000000" font-family="sans-serif" font-size="11" lengthAdjust="spacingAndGlyphs" textLength="72" x="288.5" y="274.7104">Future load()</text><ellipse cx="279.5" cy="284.3047" fill="#84BE84" rx="3" ry="3" style="stroke: #038048; stroke-width: 1.0;"/><text fill="#000000" font-family="sans-serif" font-size="11" lengthAdjust="spacingAndGlyphs" textLength="105" x="288.5" y="287.5151">bool isSupported()</text><ellipse cx="279.5" cy="297.1094" fill="#84BE84" rx="3" ry="3" style="stroke: #038048; stroke-width: 1.0;"/><text fill="#000000" font-family="sans-serif" font-size="11" lengthAdjust="spacingAndGlyphs" textLength="112" x="288.5" y="300.3198">bool shouldReload()</text><!--MD5=[366b9decc7950eafa52c703cabb7f45f]
class queuetodo::localization.dart::Localization--><rect fill="#FEFECE" filter="url(#f102hiuga5xwe0)" height="99.2188" id="queuetodo::localization.dart::Localization" style="stroke: #A80036; stroke-width: 1.5;" width="195" x="38.5" y="214"/><ellipse cx="95.75" cy="230" fill="#ADD1B2" rx="11" ry="11" style="stroke: #A80036; stroke-width: 1.0;"/><path d="M98.0938,225.6719 L98.2656,225.75 C98.4844,225.4375 98.6875,225.3438 98.9844,225.3438 C99.2813,225.3438 99.5625,225.4844 99.7188,225.75 C99.8125,225.9063 99.8281,226.0313 99.8281,226.4688 L99.8281,227.8906 C99.8281,228.3125 99.7969,228.5 99.6875,228.6563 C99.5156,228.875 99.25,229.0156 98.9844,229.0156 C98.7656,229.0156 98.5313,228.9063 98.3906,228.7656 C98.25,228.6406 98.2188,228.5156 98.1563,228.1094 C98.0625,227.7031 97.8906,227.4844 97.4063,227.2031 C96.9375,226.9531 96.3281,226.7969 95.75,226.7969 C94.0156,226.7969 92.7656,228.1094 92.7656,229.8906 L92.7656,230.9844 C92.7656,232.6875 94.0625,233.7813 96.1094,233.7813 C96.875,233.7813 97.5625,233.6563 97.9844,233.3906 C98.1719,233.2969 98.1719,233.2969 98.625,232.8125 C98.8125,232.625 99.0156,232.5469 99.2344,232.5469 C99.7031,232.5469 100.0938,232.9375 100.0938,233.3906 C100.0938,233.7813 99.7656,234.2344 99.1875,234.6406 C98.4375,235.1875 97.2813,235.4844 96.0625,235.4844 C93.1719,235.4844 91.0625,233.5938 91.0625,231.0156 L91.0625,229.8906 C91.0625,227.1719 93.0625,225.0938 95.6875,225.0938 C96.5625,225.0938 97.1563,225.2344 98.0938,225.6719 Z "/><text fill="#000000" font-family="sans-serif" font-size="12" lengthAdjust="spacingAndGlyphs" textLength="72" x="116.25" y="234.1543">Localization</text><line style="stroke: #A80036; stroke-width: 1.5;" x1="39.5" x2="232.5" y1="246" y2="246"/><ellipse cx="49.5" cy="257" fill="none" rx="3" ry="3" style="stroke: #038048; stroke-width: 1.0;"/><text fill="#000000" font-family="sans-serif" font-size="11" lengthAdjust="spacingAndGlyphs" textLength="73" x="58.5" y="260.2104">Locale locale</text><ellipse cx="49.5" cy="269.8047" fill="none" rx="3" ry="3" style="stroke: #038048; stroke-width: 1.0;"/><text fill="#000000" font-family="sans-serif" font-size="11" lengthAdjust="spacingAndGlyphs" textLength="169" x="58.5" y="273.0151">Map&lt;String, dynamic&gt; words</text><line style="stroke: #A80036; stroke-width: 1.5;" x1="39.5" x2="232.5" y1="279.6094" y2="279.6094"/><ellipse cx="49.5" cy="290.6094" fill="#84BE84" rx="3" ry="3" style="stroke: #038048; stroke-width: 1.0;"/><text fill="#000000" font-family="sans-serif" font-size="11" lengthAdjust="spacingAndGlyphs" text-decoration="underline" textLength="88" x="58.5" y="293.8198">Localization of()</text><ellipse cx="49.5" cy="303.4141" fill="#84BE84" rx="3" ry="3" style="stroke: #038048; stroke-width: 1.0;"/><text fill="#000000" font-family="sans-serif" font-size="11" lengthAdjust="spacingAndGlyphs" textLength="72" x="58.5" y="306.6245">Future load()</text><!--MD5=[1f2e784475d348a202437448dd2e2685]
class flutter::src::widgets::localizations.dart::LocalizationsDelegate<T>--><rect fill="#FEFECE" filter="url(#f102hiuga5xwe0)" height="48" id="flutter::src::widgets::localizations.dart::LocalizationsDelegate&lt;T&gt;" style="stroke: #A80036; stroke-width: 1.5;" width="195" x="251.5" y="59"/><ellipse cx="266.5" cy="75" fill="#ADD1B2" rx="11" ry="11" style="stroke: #A80036; stroke-width: 1.0;"/><path d="M268.8438,70.6719 L269.0156,70.75 C269.2344,70.4375 269.4375,70.3438 269.7344,70.3438 C270.0313,70.3438 270.3125,70.4844 270.4688,70.75 C270.5625,70.9063 270.5781,71.0313 270.5781,71.4688 L270.5781,72.8906 C270.5781,73.3125 270.5469,73.5 270.4375,73.6563 C270.2656,73.875 270,74.0156 269.7344,74.0156 C269.5156,74.0156 269.2813,73.9063 269.1406,73.7656 C269,73.6406 268.9688,73.5156 268.9063,73.1094 C268.8125,72.7031 268.6406,72.4844 268.1563,72.2031 C267.6875,71.9531 267.0781,71.7969 266.5,71.7969 C264.7656,71.7969 263.5156,73.1094 263.5156,74.8906 L263.5156,75.9844 C263.5156,77.6875 264.8125,78.7813 266.8594,78.7813 C267.625,78.7813 268.3125,78.6563 268.7344,78.3906 C268.9219,78.2969 268.9219,78.2969 269.375,77.8125 C269.5625,77.625 269.7656,77.5469 269.9844,77.5469 C270.4531,77.5469 270.8438,77.9375 270.8438,78.3906 C270.8438,78.7813 270.5156,79.2344 269.9375,79.6406 C269.1875,80.1875 268.0313,80.4844 266.8125,80.4844 C263.9219,80.4844 261.8125,78.5938 261.8125,76.0156 L261.8125,74.8906 C261.8125,72.1719 263.8125,70.0938 266.4375,70.0938 C267.3125,70.0938 267.9063,70.2344 268.8438,70.6719 Z "/><text fill="#000000" font-family="sans-serif" font-size="12" lengthAdjust="spacingAndGlyphs" textLength="163" x="280.5" y="79.1543">LocalizationsDelegate&lt;T&gt;</text><line style="stroke: #A80036; stroke-width: 1.5;" x1="252.5" x2="445.5" y1="91" y2="91"/><line style="stroke: #A80036; stroke-width: 1.5;" x1="252.5" x2="445.5" y1="99" y2="99"/><!--MD5=[c3a3914e4db15ac6a2faa446d73c2774]
class dart::ui::Locale--><rect fill="#FEFECE" filter="url(#f102hiuga5xwe0)" height="48" id="dart::ui::Locale" style="stroke: #A80036; stroke-width: 1.5;" width="72" x="100" y="420"/><ellipse cx="115" cy="436" fill="#ADD1B2" rx="11" ry="11" style="stroke: #A80036; stroke-width: 1.0;"/><path d="M117.3438,431.6719 L117.5156,431.75 C117.7344,431.4375 117.9375,431.3438 118.2344,431.3438 C118.5313,431.3438 118.8125,431.4844 118.9688,431.75 C119.0625,431.9063 119.0781,432.0313 119.0781,432.4688 L119.0781,433.8906 C119.0781,434.3125 119.0469,434.5 118.9375,434.6563 C118.7656,434.875 118.5,435.0156 118.2344,435.0156 C118.0156,435.0156 117.7813,434.9063 117.6406,434.7656 C117.5,434.6406 117.4688,434.5156 117.4063,434.1094 C117.3125,433.7031 117.1406,433.4844 116.6563,433.2031 C116.1875,432.9531 115.5781,432.7969 115,432.7969 C113.2656,432.7969 112.0156,434.1094 112.0156,435.8906 L112.0156,436.9844 C112.0156,438.6875 113.3125,439.7813 115.3594,439.7813 C116.125,439.7813 116.8125,439.6563 117.2344,439.3906 C117.4219,439.2969 117.4219,439.2969 117.875,438.8125 C118.0625,438.625 118.2656,438.5469 118.4844,438.5469 C118.9531,438.5469 119.3438,438.9375 119.3438,439.3906 C119.3438,439.7813 119.0156,440.2344 118.4375,440.6406 C117.6875,441.1875 116.5313,441.4844 115.3125,441.4844 C112.4219,441.4844 110.3125,439.5938 110.3125,437.0156 L110.3125,435.8906 C110.3125,433.1719 112.3125,431.0938 114.9375,431.0938 C115.8125,431.0938 116.4063,431.2344 117.3438,431.6719 Z "/><text fill="#000000" font-family="sans-serif" font-size="12" lengthAdjust="spacingAndGlyphs" textLength="40" x="129" y="440.1543">Locale</text><line style="stroke: #A80036; stroke-width: 1.5;" x1="101" x2="171" y1="452" y2="452"/><line style="stroke: #A80036; stroke-width: 1.5;" x1="101" x2="171" y1="460" y2="460"/><!--MD5=[f0bb88b11c15a8fb8468323fd34fca21]
class queuetodo::tabs::queue_display.dart::QueueDisplay--><rect fill="#FEFECE" filter="url(#f102hiuga5xwe0)" height="60.8047" id="queuetodo::tabs::queue_display.dart::QueueDisplay" style="stroke: #A80036; stroke-width: 1.5;" width="218" x="691" y="233"/><ellipse cx="753.25" cy="249" fill="#ADD1B2" rx="11" ry="11" style="stroke: #A80036; stroke-width: 1.0;"/><path d="M755.5938,244.6719 L755.7656,244.75 C755.9844,244.4375 756.1875,244.3438 756.4844,244.3438 C756.7813,244.3438 757.0625,244.4844 757.2188,244.75 C757.3125,244.9063 757.3281,245.0313 757.3281,245.4688 L757.3281,246.8906 C757.3281,247.3125 757.2969,247.5 757.1875,247.6563 C757.0156,247.875 756.75,248.0156 756.4844,248.0156 C756.2656,248.0156 756.0313,247.9063 755.8906,247.7656 C755.75,247.6406 755.7188,247.5156 755.6563,247.1094 C755.5625,246.7031 755.3906,246.4844 754.9063,246.2031 C754.4375,245.9531 753.8281,245.7969 753.25,245.7969 C751.5156,245.7969 750.2656,247.1094 750.2656,248.8906 L750.2656,249.9844 C750.2656,251.6875 751.5625,252.7813 753.6094,252.7813 C754.375,252.7813 755.0625,252.6563 755.4844,252.3906 C755.6719,252.2969 755.6719,252.2969 756.125,251.8125 C756.3125,251.625 756.5156,251.5469 756.7344,251.5469 C757.2031,251.5469 757.5938,251.9375 757.5938,252.3906 C757.5938,252.7813 757.2656,253.2344 756.6875,253.6406 C755.9375,254.1875 754.7813,254.4844 753.5625,254.4844 C750.6719,254.4844 748.5625,252.5938 748.5625,250.0156 L748.5625,248.8906 C748.5625,246.1719 750.5625,244.0938 753.1875,244.0938 C754.0625,244.0938 754.6563,244.2344 755.5938,244.6719 Z "/><text fill="#000000" font-family="sans-serif" font-size="12" lengthAdjust="spacingAndGlyphs" textLength="85" x="773.75" y="253.1543">QueueDisplay</text><line style="stroke: #A80036; stroke-width: 1.5;" x1="692" x2="908" y1="265" y2="265"/><line style="stroke: #A80036; stroke-width: 1.5;" x1="692" x2="908" y1="273" y2="273"/><ellipse cx="702" cy="284" fill="#84BE84" rx="3" ry="3" style="stroke: #038048; stroke-width: 1.0;"/><text fill="#000000" font-family="sans-serif" font-size="11" lengthAdjust="spacingAndGlyphs" textLength="192" x="711" y="287.2104">_QueueDisplayState createState()</text><!--MD5=[bf6825b451e402d2f76a5f6845fa900b]
class queuetodo::tabs::queue_display.dart::_QueueDisplayState--><rect fill="#FEFECE" filter="url(#f102hiuga5xwe0)" height="163.2422" id="queuetodo::tabs::queue_display.dart::_QueueDisplayState" style="stroke: #A80036; stroke-width: 1.5;" width="169" x="486.5" y="182"/><ellipse cx="506.9" cy="198" fill="#ADD1B2" rx="11" ry="11" style="stroke: #A80036; stroke-width: 1.0;"/><path d="M509.2438,193.6719 L509.4156,193.75 C509.6344,193.4375 509.8375,193.3438 510.1344,193.3438 C510.4313,193.3438 510.7125,193.4844 510.8688,193.75 C510.9625,193.9063 510.9781,194.0313 510.9781,194.4688 L510.9781,195.8906 C510.9781,196.3125 510.9469,196.5 510.8375,196.6563 C510.6656,196.875 510.4,197.0156 510.1344,197.0156 C509.9156,197.0156 509.6813,196.9063 509.5406,196.7656 C509.4,196.6406 509.3688,196.5156 509.3063,196.1094 C509.2125,195.7031 509.0406,195.4844 508.5563,195.2031 C508.0875,194.9531 507.4781,194.7969 506.9,194.7969 C505.1656,194.7969 503.9156,196.1094 503.9156,197.8906 L503.9156,198.9844 C503.9156,200.6875 505.2125,201.7813 507.2594,201.7813 C508.025,201.7813 508.7125,201.6563 509.1344,201.3906 C509.3219,201.2969 509.3219,201.2969 509.775,200.8125 C509.9625,200.625 510.1656,200.5469 510.3844,200.5469 C510.8531,200.5469 511.2438,200.9375 511.2438,201.3906 C511.2438,201.7813 510.9156,202.2344 510.3375,202.6406 C509.5875,203.1875 508.4313,203.4844 507.2125,203.4844 C504.3219,203.4844 502.2125,201.5938 502.2125,199.0156 L502.2125,197.8906 C502.2125,195.1719 504.2125,193.0938 506.8375,193.0938 C507.7125,193.0938 508.3063,193.2344 509.2438,193.6719 Z "/><text fill="#000000" font-family="sans-serif" font-size="12" lengthAdjust="spacingAndGlyphs" textLength="125" x="522.1" y="202.1543">_QueueDisplayState</text><line style="stroke: #A80036; stroke-width: 1.5;" x1="487.5" x2="654.5" y1="214" y2="214"/><rect fill="none" height="6" style="stroke: #C82930; stroke-width: 1.0;" width="6" x="494.5" y="222"/><text fill="#000000" font-family="sans-serif" font-size="11" lengthAdjust="spacingAndGlyphs" text-decoration="underline" textLength="77" x="506.5" y="228.2104">int _tasksMax</text><rect fill="none" height="6" style="stroke: #C82930; stroke-width: 1.0;" width="6" x="494.5" y="234.8047"/><text fill="#000000" font-family="sans-serif" font-size="11" lengthAdjust="spacingAndGlyphs" textLength="123" x="506.5" y="241.0151">Queue&lt;Task&gt; _tasks</text><line style="stroke: #A80036; stroke-width: 1.5;" x1="487.5" x2="654.5" y1="247.6094" y2="247.6094"/><ellipse cx="497.5" cy="258.6094" fill="#84BE84" rx="3" ry="3" style="stroke: #038048; stroke-width: 1.0;"/><text fill="#000000" font-family="sans-serif" font-size="11" lengthAdjust="spacingAndGlyphs" textLength="82" x="506.5" y="261.8198">void initState()</text><ellipse cx="497.5" cy="271.4141" fill="#84BE84" rx="3" ry="3" style="stroke: #038048; stroke-width: 1.0;"/><text fill="#000000" font-family="sans-serif" font-size="11" lengthAdjust="spacingAndGlyphs" textLength="76" x="506.5" y="274.6245">Widget build()</text><rect fill="#F24D5C" height="6" style="stroke: #C82930; stroke-width: 1.0;" width="6" x="494.5" y="281.2188"/><text fill="#000000" font-family="sans-serif" font-size="11" lengthAdjust="spacingAndGlyphs" textLength="127" x="506.5" y="287.4292">Widget _queueButton()</text><rect fill="#F24D5C" height="6" style="stroke: #C82930; stroke-width: 1.0;" width="6" x="494.5" y="294.0234"/><text fill="#000000" font-family="sans-serif" font-size="11" lengthAdjust="spacingAndGlyphs" textLength="143" x="506.5" y="300.2339">void _showQueueDialog()</text><rect fill="#F24D5C" height="6" style="stroke: #C82930; stroke-width: 1.0;" width="6" x="494.5" y="306.8281"/><text fill="#000000" font-family="sans-serif" font-size="11" lengthAdjust="spacingAndGlyphs" textLength="102" x="506.5" y="313.0386">void _saveTasks()</text><rect fill="#F24D5C" height="6" style="stroke: #C82930; stroke-width: 1.0;" width="6" x="494.5" y="319.6328"/><text fill="#000000" font-family="sans-serif" font-size="11" lengthAdjust="spacingAndGlyphs" textLength="89" x="506.5" y="325.8433">void _popTask()</text><rect fill="#F24D5C" height="6" style="stroke: #C82930; stroke-width: 1.0;" width="6" x="494.5" y="332.4375"/><text fill="#000000" font-family="sans-serif" font-size="11" lengthAdjust="spacingAndGlyphs" textLength="96" x="506.5" y="338.6479">void _pushTask()</text><!--MD5=[aa3f7eeafec522ba9bc8f59b3155082c]
class flutter::src::widgets::framework.dart::StatefulWidget--><rect fill="#FEFECE" filter="url(#f102hiuga5xwe0)" height="48" id="flutter::src::widgets::framework.dart::StatefulWidget" style="stroke: #A80036; stroke-width: 1.5;" width="124" x="1368" y="59"/><ellipse cx="1383" cy="75" fill="#ADD1B2" rx="11" ry="11" style="stroke: #A80036; stroke-width: 1.0;"/><path d="M1385.3438,70.6719 L1385.5156,70.75 C1385.7344,70.4375 1385.9375,70.3438 1386.2344,70.3438 C1386.5313,70.3438 1386.8125,70.4844 1386.9688,70.75 C1387.0625,70.9063 1387.0781,71.0313 1387.0781,71.4688 L1387.0781,72.8906 C1387.0781,73.3125 1387.0469,73.5 1386.9375,73.6563 C1386.7656,73.875 1386.5,74.0156 1386.2344,74.0156 C1386.0156,74.0156 1385.7813,73.9063 1385.6406,73.7656 C1385.5,73.6406 1385.4688,73.5156 1385.4063,73.1094 C1385.3125,72.7031 1385.1406,72.4844 1384.6563,72.2031 C1384.1875,71.9531 1383.5781,71.7969 1383,71.7969 C1381.2656,71.7969 1380.0156,73.1094 1380.0156,74.8906 L1380.0156,75.9844 C1380.0156,77.6875 1381.3125,78.7813 1383.3594,78.7813 C1384.125,78.7813 1384.8125,78.6563 1385.2344,78.3906 C1385.4219,78.2969 1385.4219,78.2969 1385.875,77.8125 C1386.0625,77.625 1386.2656,77.5469 1386.4844,77.5469 C1386.9531,77.5469 1387.3438,77.9375 1387.3438,78.3906 C1387.3438,78.7813 1387.0156,79.2344 1386.4375,79.6406 C1385.6875,80.1875 1384.5313,80.4844 1383.3125,80.4844 C1380.4219,80.4844 1378.3125,78.5938 1378.3125,76.0156 L1378.3125,74.8906 C1378.3125,72.1719 1380.3125,70.0938 1382.9375,70.0938 C1383.8125,70.0938 1384.4063,70.2344 1385.3438,70.6719 Z "/><text fill="#000000" font-family="sans-serif" font-size="12" lengthAdjust="spacingAndGlyphs" textLength="92" x="1397" y="79.1543">StatefulWidget</text><line style="stroke: #A80036; stroke-width: 1.5;" x1="1369" x2="1491" y1="91" y2="91"/><line style="stroke: #A80036; stroke-width: 1.5;" x1="1369" x2="1491" y1="99" y2="99"/><!--MD5=[481250324083d5ec2030fffe1fefaea3]
class flutter::src::widgets::framework.dart::State<T>--><rect fill="#FEFECE" filter="url(#f102hiuga5xwe0)" height="48" id="flutter::src::widgets::framework.dart::State&lt;T&gt;" style="stroke: #A80036; stroke-width: 1.5;" width="93" x="1239.5" y="59"/><ellipse cx="1254.5" cy="75" fill="#ADD1B2" rx="11" ry="11" style="stroke: #A80036; stroke-width: 1.0;"/><path d="M1256.8438,70.6719 L1257.0156,70.75 C1257.2344,70.4375 1257.4375,70.3438 1257.7344,70.3438 C1258.0313,70.3438 1258.3125,70.4844 1258.4688,70.75 C1258.5625,70.9063 1258.5781,71.0313 1258.5781,71.4688 L1258.5781,72.8906 C1258.5781,73.3125 1258.5469,73.5 1258.4375,73.6563 C1258.2656,73.875 1258,74.0156 1257.7344,74.0156 C1257.5156,74.0156 1257.2813,73.9063 1257.1406,73.7656 C1257,73.6406 1256.9688,73.5156 1256.9063,73.1094 C1256.8125,72.7031 1256.6406,72.4844 1256.1563,72.2031 C1255.6875,71.9531 1255.0781,71.7969 1254.5,71.7969 C1252.7656,71.7969 1251.5156,73.1094 1251.5156,74.8906 L1251.5156,75.9844 C1251.5156,77.6875 1252.8125,78.7813 1254.8594,78.7813 C1255.625,78.7813 1256.3125,78.6563 1256.7344,78.3906 C1256.9219,78.2969 1256.9219,78.2969 1257.375,77.8125 C1257.5625,77.625 1257.7656,77.5469 1257.9844,77.5469 C1258.4531,77.5469 1258.8438,77.9375 1258.8438,78.3906 C1258.8438,78.7813 1258.5156,79.2344 1257.9375,79.6406 C1257.1875,80.1875 1256.0313,80.4844 1254.8125,80.4844 C1251.9219,80.4844 1249.8125,78.5938 1249.8125,76.0156 L1249.8125,74.8906 C1249.8125,72.1719 1251.8125,70.0938 1254.4375,70.0938 C1255.3125,70.0938 1255.9063,70.2344 1256.8438,70.6719 Z "/><text fill="#000000" font-family="sans-serif" font-size="12" lengthAdjust="spacingAndGlyphs" textLength="61" x="1268.5" y="79.1543">State&lt;T&gt;</text><line style="stroke: #A80036; stroke-width: 1.5;" x1="1240.5" x2="1331.5" y1="91" y2="91"/><line style="stroke: #A80036; stroke-width: 1.5;" x1="1240.5" x2="1331.5" y1="99" y2="99"/><!--MD5=[efc9ff8382eabd0f0b822d1be18a98a9]
class flutter::src::widgets::framework.dart::StatelessWidget--><rect fill="#FEFECE" filter="url(#f102hiuga5xwe0)" height="48" id="flutter::src::widgets::framework.dart::StatelessWidget" style="stroke: #A80036; stroke-width: 1.5;" width="134" x="1527" y="59"/><ellipse cx="1542" cy="75" fill="#ADD1B2" rx="11" ry="11" style="stroke: #A80036; stroke-width: 1.0;"/><path d="M1544.3438,70.6719 L1544.5156,70.75 C1544.7344,70.4375 1544.9375,70.3438 1545.2344,70.3438 C1545.5313,70.3438 1545.8125,70.4844 1545.9688,70.75 C1546.0625,70.9063 1546.0781,71.0313 1546.0781,71.4688 L1546.0781,72.8906 C1546.0781,73.3125 1546.0469,73.5 1545.9375,73.6563 C1545.7656,73.875 1545.5,74.0156 1545.2344,74.0156 C1545.0156,74.0156 1544.7813,73.9063 1544.6406,73.7656 C1544.5,73.6406 1544.4688,73.5156 1544.4063,73.1094 C1544.3125,72.7031 1544.1406,72.4844 1543.6563,72.2031 C1543.1875,71.9531 1542.5781,71.7969 1542,71.7969 C1540.2656,71.7969 1539.0156,73.1094 1539.0156,74.8906 L1539.0156,75.9844 C1539.0156,77.6875 1540.3125,78.7813 1542.3594,78.7813 C1543.125,78.7813 1543.8125,78.6563 1544.2344,78.3906 C1544.4219,78.2969 1544.4219,78.2969 1544.875,77.8125 C1545.0625,77.625 1545.2656,77.5469 1545.4844,77.5469 C1545.9531,77.5469 1546.3438,77.9375 1546.3438,78.3906 C1546.3438,78.7813 1546.0156,79.2344 1545.4375,79.6406 C1544.6875,80.1875 1543.5313,80.4844 1542.3125,80.4844 C1539.4219,80.4844 1537.3125,78.5938 1537.3125,76.0156 L1537.3125,74.8906 C1537.3125,72.1719 1539.3125,70.0938 1541.9375,70.0938 C1542.8125,70.0938 1543.4063,70.2344 1544.3438,70.6719 Z "/><text fill="#000000" font-family="sans-serif" font-size="12" lengthAdjust="spacingAndGlyphs" textLength="102" x="1556" y="79.1543">StatelessWidget</text><line style="stroke: #A80036; stroke-width: 1.5;" x1="1528" x2="1660" y1="91" y2="91"/><line style="stroke: #A80036; stroke-width: 1.5;" x1="1528" x2="1660" y1="99" y2="99"/><!--MD5=[9c656903a318addfb63d69bc5b8308b4]
class dart::collection::Queue<Task>--><rect fill="#FEFECE" filter="url(#f102hiuga5xwe0)" height="48" id="dart::collection::Queue&lt;Task&gt;" style="stroke: #A80036; stroke-width: 1.5;" width="122" x="510" y="420"/><ellipse cx="525" cy="436" fill="#ADD1B2" rx="11" ry="11" style="stroke: #A80036; stroke-width: 1.0;"/><path d="M527.3438,431.6719 L527.5156,431.75 C527.7344,431.4375 527.9375,431.3438 528.2344,431.3438 C528.5313,431.3438 528.8125,431.4844 528.9688,431.75 C529.0625,431.9063 529.0781,432.0313 529.0781,432.4688 L529.0781,433.8906 C529.0781,434.3125 529.0469,434.5 528.9375,434.6563 C528.7656,434.875 528.5,435.0156 528.2344,435.0156 C528.0156,435.0156 527.7813,434.9063 527.6406,434.7656 C527.5,434.6406 527.4688,434.5156 527.4063,434.1094 C527.3125,433.7031 527.1406,433.4844 526.6563,433.2031 C526.1875,432.9531 525.5781,432.7969 525,432.7969 C523.2656,432.7969 522.0156,434.1094 522.0156,435.8906 L522.0156,436.9844 C522.0156,438.6875 523.3125,439.7813 525.3594,439.7813 C526.125,439.7813 526.8125,439.6563 527.2344,439.3906 C527.4219,439.2969 527.4219,439.2969 527.875,438.8125 C528.0625,438.625 528.2656,438.5469 528.4844,438.5469 C528.9531,438.5469 529.3438,438.9375 529.3438,439.3906 C529.3438,439.7813 529.0156,440.2344 528.4375,440.6406 C527.6875,441.1875 526.5313,441.4844 525.3125,441.4844 C522.4219,441.4844 520.3125,439.5938 520.3125,437.0156 L520.3125,435.8906 C520.3125,433.1719 522.3125,431.0938 524.9375,431.0938 C525.8125,431.0938 526.4063,431.2344 527.3438,431.6719 Z "/><text fill="#000000" font-family="sans-serif" font-size="12" lengthAdjust="spacingAndGlyphs" textLength="90" x="539" y="440.1543">Queue&lt;Task&gt;</text><line style="stroke: #A80036; stroke-width: 1.5;" x1="511" x2="631" y1="452" y2="452"/><line style="stroke: #A80036; stroke-width: 1.5;" x1="511" x2="631" y1="460" y2="460"/><!--MD5=[22a0abf768545e42456dbb97fa465c89]
class queuetodo::tabs::usage.dart::Usage--><rect fill="#FEFECE" filter="url(#f102hiuga5xwe0)" height="60.8047" id="queuetodo::tabs::usage.dart::Usage" style="stroke: #A80036; stroke-width: 1.5;" width="102" x="1647" y="233"/><ellipse cx="1675.5" cy="249" fill="#ADD1B2" rx="11" ry="11" style="stroke: #A80036; stroke-width: 1.0;"/><path d="M1677.8438,244.6719 L1678.0156,244.75 C1678.2344,244.4375 1678.4375,244.3438 1678.7344,244.3438 C1679.0313,244.3438 1679.3125,244.4844 1679.4688,244.75 C1679.5625,244.9063 1679.5781,245.0313 1679.5781,245.4688 L1679.5781,246.8906 C1679.5781,247.3125 1679.5469,247.5 1679.4375,247.6563 C1679.2656,247.875 1679,248.0156 1678.7344,248.0156 C1678.5156,248.0156 1678.2813,247.9063 1678.1406,247.7656 C1678,247.6406 1677.9688,247.5156 1677.9063,247.1094 C1677.8125,246.7031 1677.6406,246.4844 1677.1563,246.2031 C1676.6875,245.9531 1676.0781,245.7969 1675.5,245.7969 C1673.7656,245.7969 1672.5156,247.1094 1672.5156,248.8906 L1672.5156,249.9844 C1672.5156,251.6875 1673.8125,252.7813 1675.8594,252.7813 C1676.625,252.7813 1677.3125,252.6563 1677.7344,252.3906 C1677.9219,252.2969 1677.9219,252.2969 1678.375,251.8125 C1678.5625,251.625 1678.7656,251.5469 1678.9844,251.5469 C1679.4531,251.5469 1679.8438,251.9375 1679.8438,252.3906 C1679.8438,252.7813 1679.5156,253.2344 1678.9375,253.6406 C1678.1875,254.1875 1677.0313,254.4844 1675.8125,254.4844 C1672.9219,254.4844 1670.8125,252.5938 1670.8125,250.0156 L1670.8125,248.8906 C1670.8125,246.1719 1672.8125,244.0938 1675.4375,244.0938 C1676.3125,244.0938 1676.9063,244.2344 1677.8438,244.6719 Z "/><text fill="#000000" font-family="sans-serif" font-size="12" lengthAdjust="spacingAndGlyphs" textLength="40" x="1692.5" y="253.1543">Usage</text><line style="stroke: #A80036; stroke-width: 1.5;" x1="1648" x2="1748" y1="265" y2="265"/><line style="stroke: #A80036; stroke-width: 1.5;" x1="1648" x2="1748" y1="273" y2="273"/><ellipse cx="1658" cy="284" fill="#84BE84" rx="3" ry="3" style="stroke: #038048; stroke-width: 1.0;"/><text fill="#000000" font-family="sans-serif" font-size="11" lengthAdjust="spacingAndGlyphs" textLength="76" x="1667" y="287.2104">Widget build()</text><!--MD5=[0c672235adf9f0c322f9efa901dde92f]
class queuetodo::tabs::about.dart::About--><rect fill="#FEFECE" filter="url(#f102hiuga5xwe0)" height="99.2188" id="queuetodo::tabs::about.dart::About" style="stroke: #A80036; stroke-width: 1.5;" width="165" x="2120.5" y="214"/><ellipse cx="2180.25" cy="230" fill="#ADD1B2" rx="11" ry="11" style="stroke: #A80036; stroke-width: 1.0;"/><path d="M2182.5938,225.6719 L2182.7656,225.75 C2182.9844,225.4375 2183.1875,225.3438 2183.4844,225.3438 C2183.7813,225.3438 2184.0625,225.4844 2184.2188,225.75 C2184.3125,225.9063 2184.3281,226.0313 2184.3281,226.4688 L2184.3281,227.8906 C2184.3281,228.3125 2184.2969,228.5 2184.1875,228.6563 C2184.0156,228.875 2183.75,229.0156 2183.4844,229.0156 C2183.2656,229.0156 2183.0313,228.9063 2182.8906,228.7656 C2182.75,228.6406 2182.7188,228.5156 2182.6563,228.1094 C2182.5625,227.7031 2182.3906,227.4844 2181.9063,227.2031 C2181.4375,226.9531 2180.8281,226.7969 2180.25,226.7969 C2178.5156,226.7969 2177.2656,228.1094 2177.2656,229.8906 L2177.2656,230.9844 C2177.2656,232.6875 2178.5625,233.7813 2180.6094,233.7813 C2181.375,233.7813 2182.0625,233.6563 2182.4844,233.3906 C2182.6719,233.2969 2182.6719,233.2969 2183.125,232.8125 C2183.3125,232.625 2183.5156,232.5469 2183.7344,232.5469 C2184.2031,232.5469 2184.5938,232.9375 2184.5938,233.3906 C2184.5938,233.7813 2184.2656,234.2344 2183.6875,234.6406 C2182.9375,235.1875 2181.7813,235.4844 2180.5625,235.4844 C2177.6719,235.4844 2175.5625,233.5938 2175.5625,231.0156 L2175.5625,229.8906 C2175.5625,227.1719 2177.5625,225.0938 2180.1875,225.0938 C2181.0625,225.0938 2181.6563,225.2344 2182.5938,225.6719 Z "/><text fill="#000000" font-family="sans-serif" font-size="12" lengthAdjust="spacingAndGlyphs" textLength="37" x="2200.75" y="234.1543">About</text><line style="stroke: #A80036; stroke-width: 1.5;" x1="2121.5" x2="2284.5" y1="246" y2="246"/><rect fill="none" height="6" style="stroke: #C82930; stroke-width: 1.0;" width="6" x="2128.5" y="254"/><text fill="#000000" font-family="sans-serif" font-size="11" lengthAdjust="spacingAndGlyphs" textLength="97" x="2140.5" y="260.2104">String _authorUrl</text><rect fill="none" height="6" style="stroke: #C82930; stroke-width: 1.0;" width="6" x="2128.5" y="266.8047"/><text fill="#000000" font-family="sans-serif" font-size="11" lengthAdjust="spacingAndGlyphs" textLength="86" x="2140.5" y="273.0151">String _repoUrl</text><rect fill="none" height="6" style="stroke: #C82930; stroke-width: 1.0;" width="6" x="2128.5" y="279.6094"/><text fill="#000000" font-family="sans-serif" font-size="11" lengthAdjust="spacingAndGlyphs" textLength="139" x="2140.5" y="285.8198">String _semanticVersion</text><line style="stroke: #A80036; stroke-width: 1.5;" x1="2121.5" x2="2284.5" y1="292.4141" y2="292.4141"/><ellipse cx="2131.5" cy="303.4141" fill="#84BE84" rx="3" ry="3" style="stroke: #038048; stroke-width: 1.0;"/><text fill="#000000" font-family="sans-serif" font-size="11" lengthAdjust="spacingAndGlyphs" textLength="76" x="2140.5" y="306.6245">Widget build()</text><!--MD5=[8e70868912e5085d14ce0e87c31664ac]
class queuetodo::tabs::about.dart::_AboutTile--><rect fill="#FEFECE" filter="url(#f102hiuga5xwe0)" height="99.2188" id="queuetodo::tabs::about.dart::_AboutTile" style="stroke: #A80036; stroke-width: 1.5;" width="169" x="1916.5" y="214"/><ellipse cx="1964.75" cy="230" fill="#ADD1B2" rx="11" ry="11" style="stroke: #A80036; stroke-width: 1.0;"/><path d="M1967.0938,225.6719 L1967.2656,225.75 C1967.4844,225.4375 1967.6875,225.3438 1967.9844,225.3438 C1968.2813,225.3438 1968.5625,225.4844 1968.7188,225.75 C1968.8125,225.9063 1968.8281,226.0313 1968.8281,226.4688 L1968.8281,227.8906 C1968.8281,228.3125 1968.7969,228.5 1968.6875,228.6563 C1968.5156,228.875 1968.25,229.0156 1967.9844,229.0156 C1967.7656,229.0156 1967.5313,228.9063 1967.3906,228.7656 C1967.25,228.6406 1967.2188,228.5156 1967.1563,228.1094 C1967.0625,227.7031 1966.8906,227.4844 1966.4063,227.2031 C1965.9375,226.9531 1965.3281,226.7969 1964.75,226.7969 C1963.0156,226.7969 1961.7656,228.1094 1961.7656,229.8906 L1961.7656,230.9844 C1961.7656,232.6875 1963.0625,233.7813 1965.1094,233.7813 C1965.875,233.7813 1966.5625,233.6563 1966.9844,233.3906 C1967.1719,233.2969 1967.1719,233.2969 1967.625,232.8125 C1967.8125,232.625 1968.0156,232.5469 1968.2344,232.5469 C1968.7031,232.5469 1969.0938,232.9375 1969.0938,233.3906 C1969.0938,233.7813 1968.7656,234.2344 1968.1875,234.6406 C1967.4375,235.1875 1966.2813,235.4844 1965.0625,235.4844 C1962.1719,235.4844 1960.0625,233.5938 1960.0625,231.0156 L1960.0625,229.8906 C1960.0625,227.1719 1962.0625,225.0938 1964.6875,225.0938 C1965.5625,225.0938 1966.1563,225.2344 1967.0938,225.6719 Z "/><text fill="#000000" font-family="sans-serif" font-size="12" lengthAdjust="spacingAndGlyphs" textLength="64" x="1985.25" y="234.1543">_AboutTile</text><line style="stroke: #A80036; stroke-width: 1.5;" x1="1917.5" x2="2084.5" y1="246" y2="246"/><ellipse cx="1927.5" cy="257" fill="none" rx="3" ry="3" style="stroke: #038048; stroke-width: 1.0;"/><text fill="#000000" font-family="sans-serif" font-size="11" lengthAdjust="spacingAndGlyphs" textLength="53" x="1936.5" y="260.2104">String url</text><ellipse cx="1927.5" cy="269.8047" fill="none" rx="3" ry="3" style="stroke: #038048; stroke-width: 1.0;"/><text fill="#000000" font-family="sans-serif" font-size="11" lengthAdjust="spacingAndGlyphs" textLength="59" x="1936.5" y="273.0151">String title</text><line style="stroke: #A80036; stroke-width: 1.5;" x1="1917.5" x2="2084.5" y1="279.6094" y2="279.6094"/><ellipse cx="1927.5" cy="290.6094" fill="#84BE84" rx="3" ry="3" style="stroke: #038048; stroke-width: 1.0;"/><text fill="#000000" font-family="sans-serif" font-size="11" lengthAdjust="spacingAndGlyphs" textLength="76" x="1936.5" y="293.8198">Widget build()</text><rect fill="#F24D5C" height="6" style="stroke: #C82930; stroke-width: 1.0;" width="6" x="1924.5" y="300.4141"/><text fill="#000000" font-family="sans-serif" font-size="11" lengthAdjust="spacingAndGlyphs" textLength="143" x="1936.5" y="306.6245">void _openUrlInBrowser()</text><!--MD5=[8ea288e3d6d08c28ef324fc414c5fbed]
class queuetodo::task.dart::Task--><rect fill="#FEFECE" filter="url(#f102hiuga5xwe0)" height="163.2422" id="queuetodo::task.dart::Task" style="stroke: #A80036; stroke-width: 1.5;" width="196" x="1158" y="182"/><ellipse cx="1237.25" cy="198" fill="#ADD1B2" rx="11" ry="11" style="stroke: #A80036; stroke-width: 1.0;"/><path d="M1239.5938,193.6719 L1239.7656,193.75 C1239.9844,193.4375 1240.1875,193.3438 1240.4844,193.3438 C1240.7813,193.3438 1241.0625,193.4844 1241.2188,193.75 C1241.3125,193.9063 1241.3281,194.0313 1241.3281,194.4688 L1241.3281,195.8906 C1241.3281,196.3125 1241.2969,196.5 1241.1875,196.6563 C1241.0156,196.875 1240.75,197.0156 1240.4844,197.0156 C1240.2656,197.0156 1240.0313,196.9063 1239.8906,196.7656 C1239.75,196.6406 1239.7188,196.5156 1239.6563,196.1094 C1239.5625,195.7031 1239.3906,195.4844 1238.9063,195.2031 C1238.4375,194.9531 1237.8281,194.7969 1237.25,194.7969 C1235.5156,194.7969 1234.2656,196.1094 1234.2656,197.8906 L1234.2656,198.9844 C1234.2656,200.6875 1235.5625,201.7813 1237.6094,201.7813 C1238.375,201.7813 1239.0625,201.6563 1239.4844,201.3906 C1239.6719,201.2969 1239.6719,201.2969 1240.125,200.8125 C1240.3125,200.625 1240.5156,200.5469 1240.7344,200.5469 C1241.2031,200.5469 1241.5938,200.9375 1241.5938,201.3906 C1241.5938,201.7813 1241.2656,202.2344 1240.6875,202.6406 C1239.9375,203.1875 1238.7813,203.4844 1237.5625,203.4844 C1234.6719,203.4844 1232.5625,201.5938 1232.5625,199.0156 L1232.5625,197.8906 C1232.5625,195.1719 1234.5625,193.0938 1237.1875,193.0938 C1238.0625,193.0938 1238.6563,193.2344 1239.5938,193.6719 Z "/><text fill="#000000" font-family="sans-serif" font-size="12" lengthAdjust="spacingAndGlyphs" textLength="29" x="1257.75" y="202.1543">Task</text><line style="stroke: #A80036; stroke-width: 1.5;" x1="1159" x2="1353" y1="214" y2="214"/><ellipse cx="1169" cy="225" fill="none" rx="3" ry="3" style="stroke: #038048; stroke-width: 1.0;"/><text fill="#000000" font-family="sans-serif" font-size="11" lengthAdjust="spacingAndGlyphs" textLength="144" x="1178" y="228.2104">int maxDescriptionLength</text><ellipse cx="1169" cy="237.8047" fill="none" rx="3" ry="3" style="stroke: #038048; stroke-width: 1.0;"/><text fill="#000000" font-family="sans-serif" font-size="11" lengthAdjust="spacingAndGlyphs" textLength="104" x="1178" y="241.0151">int maxTitleLength</text><ellipse cx="1169" cy="250.6094" fill="none" rx="3" ry="3" style="stroke: #038048; stroke-width: 1.0;"/><text fill="#000000" font-family="sans-serif" font-size="11" lengthAdjust="spacingAndGlyphs" textLength="170" x="1178" y="253.8198">dynamic descriptionController</text><ellipse cx="1169" cy="263.4141" fill="none" rx="3" ry="3" style="stroke: #038048; stroke-width: 1.0;"/><text fill="#000000" font-family="sans-serif" font-size="11" lengthAdjust="spacingAndGlyphs" textLength="128" x="1178" y="266.6245">dynamic titleController</text><ellipse cx="1169" cy="276.2188" fill="none" rx="3" ry="3" style="stroke: #038048; stroke-width: 1.0;"/><text fill="#000000" font-family="sans-serif" font-size="11" lengthAdjust="spacingAndGlyphs" textLength="168" x="1178" y="279.4292">DateTime creationTimestamp</text><ellipse cx="1169" cy="289.0234" fill="none" rx="3" ry="3" style="stroke: #038048; stroke-width: 1.0;"/><text fill="#000000" font-family="sans-serif" font-size="11" lengthAdjust="spacingAndGlyphs" textLength="126" x="1178" y="292.2339">DateTime lastModified</text><ellipse cx="1169" cy="301.8281" fill="none" rx="3" ry="3" style="stroke: #038048; stroke-width: 1.0;"/><text fill="#000000" font-family="sans-serif" font-size="11" lengthAdjust="spacingAndGlyphs" textLength="121" x="1178" y="305.0386">Function removeTask</text><ellipse cx="1169" cy="314.6328" fill="none" rx="3" ry="3" style="stroke: #038048; stroke-width: 1.0;"/><text fill="#000000" font-family="sans-serif" font-size="11" lengthAdjust="spacingAndGlyphs" textLength="114" x="1178" y="317.8433">Function saveConfig</text><line style="stroke: #A80036; stroke-width: 1.5;" x1="1159" x2="1353" y1="324.4375" y2="324.4375"/><ellipse cx="1169" cy="335.4375" fill="#84BE84" rx="3" ry="3" style="stroke: #038048; stroke-width: 1.0;"/><text fill="#000000" font-family="sans-serif" font-size="11" lengthAdjust="spacingAndGlyphs" textLength="141" x="1178" y="338.6479">_TaskState createState()</text><!--MD5=[14d7698cd84d60077908f3e86cc5f281]
class queuetodo::task.dart::_TaskState--><rect fill="#FEFECE" filter="url(#f102hiuga5xwe0)" height="124.8281" id="queuetodo::task.dart::_TaskState" style="stroke: #A80036; stroke-width: 1.5;" width="158" x="965" y="201"/><ellipse cx="1005.65" cy="217" fill="#ADD1B2" rx="11" ry="11" style="stroke: #A80036; stroke-width: 1.0;"/><path d="M1007.9938,212.6719 L1008.1656,212.75 C1008.3844,212.4375 1008.5875,212.3438 1008.8844,212.3438 C1009.1813,212.3438 1009.4625,212.4844 1009.6188,212.75 C1009.7125,212.9063 1009.7281,213.0313 1009.7281,213.4688 L1009.7281,214.8906 C1009.7281,215.3125 1009.6969,215.5 1009.5875,215.6563 C1009.4156,215.875 1009.15,216.0156 1008.8844,216.0156 C1008.6656,216.0156 1008.4313,215.9063 1008.2906,215.7656 C1008.15,215.6406 1008.1188,215.5156 1008.0563,215.1094 C1007.9625,214.7031 1007.7906,214.4844 1007.3063,214.2031 C1006.8375,213.9531 1006.2281,213.7969 1005.65,213.7969 C1003.9156,213.7969 1002.6656,215.1094 1002.6656,216.8906 L1002.6656,217.9844 C1002.6656,219.6875 1003.9625,220.7813 1006.0094,220.7813 C1006.775,220.7813 1007.4625,220.6563 1007.8844,220.3906 C1008.0719,220.2969 1008.0719,220.2969 1008.525,219.8125 C1008.7125,219.625 1008.9156,219.5469 1009.1344,219.5469 C1009.6031,219.5469 1009.9938,219.9375 1009.9938,220.3906 C1009.9938,220.7813 1009.6656,221.2344 1009.0875,221.6406 C1008.3375,222.1875 1007.1813,222.4844 1005.9625,222.4844 C1003.0719,222.4844 1000.9625,220.5938 1000.9625,218.0156 L1000.9625,216.8906 C1000.9625,214.1719 1002.9625,212.0938 1005.5875,212.0938 C1006.4625,212.0938 1007.0563,212.2344 1007.9938,212.6719 Z "/><text fill="#000000" font-family="sans-serif" font-size="12" lengthAdjust="spacingAndGlyphs" textLength="69" x="1025.35" y="221.1543">_TaskState</text><line style="stroke: #A80036; stroke-width: 1.5;" x1="966" x2="1122" y1="233" y2="233"/><rect fill="none" height="6" style="stroke: #C82930; stroke-width: 1.0;" width="6" x="973" y="241"/><text fill="#000000" font-family="sans-serif" font-size="11" lengthAdjust="spacingAndGlyphs" textLength="132" x="985" y="247.2104">DateTime _lastModified</text><rect fill="none" height="6" style="stroke: #C82930; stroke-width: 1.0;" width="6" x="973" y="253.8047"/><text fill="#000000" font-family="sans-serif" font-size="11" lengthAdjust="spacingAndGlyphs" textLength="107" x="985" y="260.0151">String _description</text><rect fill="none" height="6" style="stroke: #C82930; stroke-width: 1.0;" width="6" x="973" y="266.6094"/><text fill="#000000" font-family="sans-serif" font-size="11" lengthAdjust="spacingAndGlyphs" textLength="65" x="985" y="272.8198">String _title</text><line style="stroke: #A80036; stroke-width: 1.5;" x1="966" x2="1122" y1="279.4141" y2="279.4141"/><ellipse cx="976" cy="290.4141" fill="#84BE84" rx="3" ry="3" style="stroke: #038048; stroke-width: 1.0;"/><text fill="#000000" font-family="sans-serif" font-size="11" lengthAdjust="spacingAndGlyphs" textLength="82" x="985" y="293.6245">void initState()</text><ellipse cx="976" cy="303.2188" fill="#84BE84" rx="3" ry="3" style="stroke: #038048; stroke-width: 1.0;"/><text fill="#000000" font-family="sans-serif" font-size="11" lengthAdjust="spacingAndGlyphs" textLength="76" x="985" y="306.4292">Widget build()</text><rect fill="#F24D5C" height="6" style="stroke: #C82930; stroke-width: 1.0;" width="6" x="973" y="313.0234"/><text fill="#000000" font-family="sans-serif" font-size="11" lengthAdjust="spacingAndGlyphs" textLength="116" x="985" y="319.2339">String _formatDate()</text><!--MD5=[7c1539f78955faac3bfd251bf3e3ad13]
class queuetodo::task.dart::_TaskTextField--><rect fill="#FEFECE" filter="url(#f102hiuga5xwe0)" height="99.2188" id="queuetodo::task.dart::_TaskTextField" style="stroke: #A80036; stroke-width: 1.5;" width="202" x="1389" y="214"/><ellipse cx="1440.75" cy="230" fill="#ADD1B2" rx="11" ry="11" style="stroke: #A80036; stroke-width: 1.0;"/><path d="M1443.0938,225.6719 L1443.2656,225.75 C1443.4844,225.4375 1443.6875,225.3438 1443.9844,225.3438 C1444.2813,225.3438 1444.5625,225.4844 1444.7188,225.75 C1444.8125,225.9063 1444.8281,226.0313 1444.8281,226.4688 L1444.8281,227.8906 C1444.8281,228.3125 1444.7969,228.5 1444.6875,228.6563 C1444.5156,228.875 1444.25,229.0156 1443.9844,229.0156 C1443.7656,229.0156 1443.5313,228.9063 1443.3906,228.7656 C1443.25,228.6406 1443.2188,228.5156 1443.1563,228.1094 C1443.0625,227.7031 1442.8906,227.4844 1442.4063,227.2031 C1441.9375,226.9531 1441.3281,226.7969 1440.75,226.7969 C1439.0156,226.7969 1437.7656,228.1094 1437.7656,229.8906 L1437.7656,230.9844 C1437.7656,232.6875 1439.0625,233.7813 1441.1094,233.7813 C1441.875,233.7813 1442.5625,233.6563 1442.9844,233.3906 C1443.1719,233.2969 1443.1719,233.2969 1443.625,232.8125 C1443.8125,232.625 1444.0156,232.5469 1444.2344,232.5469 C1444.7031,232.5469 1445.0938,232.9375 1445.0938,233.3906 C1445.0938,233.7813 1444.7656,234.2344 1444.1875,234.6406 C1443.4375,235.1875 1442.2813,235.4844 1441.0625,235.4844 C1438.1719,235.4844 1436.0625,233.5938 1436.0625,231.0156 L1436.0625,229.8906 C1436.0625,227.1719 1438.0625,225.0938 1440.6875,225.0938 C1441.5625,225.0938 1442.1563,225.2344 1443.0938,225.6719 Z "/><text fill="#000000" font-family="sans-serif" font-size="12" lengthAdjust="spacingAndGlyphs" textLength="90" x="1461.25" y="234.1543">_TaskTextField</text><line style="stroke: #A80036; stroke-width: 1.5;" x1="1390" x2="1590" y1="246" y2="246"/><ellipse cx="1400" cy="257" fill="none" rx="3" ry="3" style="stroke: #038048; stroke-width: 1.0;"/><text fill="#000000" font-family="sans-serif" font-size="11" lengthAdjust="spacingAndGlyphs" textLength="80" x="1409" y="260.2104">int maxLength</text><ellipse cx="1400" cy="269.8047" fill="none" rx="3" ry="3" style="stroke: #038048; stroke-width: 1.0;"/><text fill="#000000" font-family="sans-serif" font-size="11" lengthAdjust="spacingAndGlyphs" textLength="83" x="1409" y="273.0151">String hintText</text><ellipse cx="1400" cy="282.6094" fill="none" rx="3" ry="3" style="stroke: #038048; stroke-width: 1.0;"/><text fill="#000000" font-family="sans-serif" font-size="11" lengthAdjust="spacingAndGlyphs" textLength="176" x="1409" y="285.8198">TextEditingController controller</text><line style="stroke: #A80036; stroke-width: 1.5;" x1="1390" x2="1590" y1="292.4141" y2="292.4141"/><ellipse cx="1400" cy="303.4141" fill="#84BE84" rx="3" ry="3" style="stroke: #038048; stroke-width: 1.0;"/><text fill="#000000" font-family="sans-serif" font-size="11" lengthAdjust="spacingAndGlyphs" textLength="76" x="1409" y="306.6245">Widget build()</text><!--MD5=[40b395e1d1237e82679a917749c88d40]
class flutter::src::widgets::editable_text.dart::TextEditingController--><rect fill="#FEFECE" filter="url(#f102hiuga5xwe0)" height="48" id="flutter::src::widgets::editable_text.dart::TextEditingController" style="stroke: #A80036; stroke-width: 1.5;" width="162" x="1409" y="420"/><ellipse cx="1424" cy="436" fill="#ADD1B2" rx="11" ry="11" style="stroke: #A80036; stroke-width: 1.0;"/><path d="M1426.3438,431.6719 L1426.5156,431.75 C1426.7344,431.4375 1426.9375,431.3438 1427.2344,431.3438 C1427.5313,431.3438 1427.8125,431.4844 1427.9688,431.75 C1428.0625,431.9063 1428.0781,432.0313 1428.0781,432.4688 L1428.0781,433.8906 C1428.0781,434.3125 1428.0469,434.5 1427.9375,434.6563 C1427.7656,434.875 1427.5,435.0156 1427.2344,435.0156 C1427.0156,435.0156 1426.7813,434.9063 1426.6406,434.7656 C1426.5,434.6406 1426.4688,434.5156 1426.4063,434.1094 C1426.3125,433.7031 1426.1406,433.4844 1425.6563,433.2031 C1425.1875,432.9531 1424.5781,432.7969 1424,432.7969 C1422.2656,432.7969 1421.0156,434.1094 1421.0156,435.8906 L1421.0156,436.9844 C1421.0156,438.6875 1422.3125,439.7813 1424.3594,439.7813 C1425.125,439.7813 1425.8125,439.6563 1426.2344,439.3906 C1426.4219,439.2969 1426.4219,439.2969 1426.875,438.8125 C1427.0625,438.625 1427.2656,438.5469 1427.4844,438.5469 C1427.9531,438.5469 1428.3438,438.9375 1428.3438,439.3906 C1428.3438,439.7813 1428.0156,440.2344 1427.4375,440.6406 C1426.6875,441.1875 1425.5313,441.4844 1424.3125,441.4844 C1421.4219,441.4844 1419.3125,439.5938 1419.3125,437.0156 L1419.3125,435.8906 C1419.3125,433.1719 1421.3125,431.0938 1423.9375,431.0938 C1424.8125,431.0938 1425.4063,431.2344 1426.3438,431.6719 Z "/><text fill="#000000" font-family="sans-serif" font-size="12" lengthAdjust="spacingAndGlyphs" textLength="130" x="1438" y="440.1543">TextEditingController</text><line style="stroke: #A80036; stroke-width: 1.5;" x1="1410" x2="1570" y1="452" y2="452"/><line style="stroke: #A80036; stroke-width: 1.5;" x1="1410" x2="1570" y1="460" y2="460"/><!--MD5=[408b618d338626c148825dd6a8e452b6]
class queuetodo::app.dart::App--><rect fill="#FEFECE" filter="url(#f102hiuga5xwe0)" height="60.8047" id="queuetodo::app.dart::App" style="stroke: #A80036; stroke-width: 1.5;" width="161" x="2342.5" y="233"/><ellipse cx="2406.75" cy="249" fill="#ADD1B2" rx="11" ry="11" style="stroke: #A80036; stroke-width: 1.0;"/><path d="M2409.0938,244.6719 L2409.2656,244.75 C2409.4844,244.4375 2409.6875,244.3438 2409.9844,244.3438 C2410.2813,244.3438 2410.5625,244.4844 2410.7188,244.75 C2410.8125,244.9063 2410.8281,245.0313 2410.8281,245.4688 L2410.8281,246.8906 C2410.8281,247.3125 2410.7969,247.5 2410.6875,247.6563 C2410.5156,247.875 2410.25,248.0156 2409.9844,248.0156 C2409.7656,248.0156 2409.5313,247.9063 2409.3906,247.7656 C2409.25,247.6406 2409.2188,247.5156 2409.1563,247.1094 C2409.0625,246.7031 2408.8906,246.4844 2408.4063,246.2031 C2407.9375,245.9531 2407.3281,245.7969 2406.75,245.7969 C2405.0156,245.7969 2403.7656,247.1094 2403.7656,248.8906 L2403.7656,249.9844 C2403.7656,251.6875 2405.0625,252.7813 2407.1094,252.7813 C2407.875,252.7813 2408.5625,252.6563 2408.9844,252.3906 C2409.1719,252.2969 2409.1719,252.2969 2409.625,251.8125 C2409.8125,251.625 2410.0156,251.5469 2410.2344,251.5469 C2410.7031,251.5469 2411.0938,251.9375 2411.0938,252.3906 C2411.0938,252.7813 2410.7656,253.2344 2410.1875,253.6406 C2409.4375,254.1875 2408.2813,254.4844 2407.0625,254.4844 C2404.1719,254.4844 2402.0625,252.5938 2402.0625,250.0156 L2402.0625,248.8906 C2402.0625,246.1719 2404.0625,244.0938 2406.6875,244.0938 C2407.5625,244.0938 2408.1563,244.2344 2409.0938,244.6719 Z "/><text fill="#000000" font-family="sans-serif" font-size="12" lengthAdjust="spacingAndGlyphs" textLength="24" x="2427.25" y="253.1543">App</text><line style="stroke: #A80036; stroke-width: 1.5;" x1="2343.5" x2="2502.5" y1="265" y2="265"/><line style="stroke: #A80036; stroke-width: 1.5;" x1="2343.5" x2="2502.5" y1="273" y2="273"/><ellipse cx="2353.5" cy="284" fill="#84BE84" rx="3" ry="3" style="stroke: #038048; stroke-width: 1.0;"/><text fill="#000000" font-family="sans-serif" font-size="11" lengthAdjust="spacingAndGlyphs" textLength="135" x="2362.5" y="287.2104">_AppState createState()</text><!--MD5=[e124db47c78ebc4fb16eb970093d5188]
class queuetodo::app.dart::_AppState--><rect fill="#FEFECE" filter="url(#f102hiuga5xwe0)" height="112.0234" id="queuetodo::app.dart::_AppState" style="stroke: #A80036; stroke-width: 1.5;" width="167" x="2538.5" y="207.5"/><ellipse cx="2585.75" cy="223.5" fill="#ADD1B2" rx="11" ry="11" style="stroke: #A80036; stroke-width: 1.0;"/><path d="M2588.0938,219.1719 L2588.2656,219.25 C2588.4844,218.9375 2588.6875,218.8438 2588.9844,218.8438 C2589.2813,218.8438 2589.5625,218.9844 2589.7188,219.25 C2589.8125,219.4063 2589.8281,219.5313 2589.8281,219.9688 L2589.8281,221.3906 C2589.8281,221.8125 2589.7969,222 2589.6875,222.1563 C2589.5156,222.375 2589.25,222.5156 2588.9844,222.5156 C2588.7656,222.5156 2588.5313,222.4063 2588.3906,222.2656 C2588.25,222.1406 2588.2188,222.0156 2588.1563,221.6094 C2588.0625,221.2031 2587.8906,220.9844 2587.4063,220.7031 C2586.9375,220.4531 2586.3281,220.2969 2585.75,220.2969 C2584.0156,220.2969 2582.7656,221.6094 2582.7656,223.3906 L2582.7656,224.4844 C2582.7656,226.1875 2584.0625,227.2813 2586.1094,227.2813 C2586.875,227.2813 2587.5625,227.1563 2587.9844,226.8906 C2588.1719,226.7969 2588.1719,226.7969 2588.625,226.3125 C2588.8125,226.125 2589.0156,226.0469 2589.2344,226.0469 C2589.7031,226.0469 2590.0938,226.4375 2590.0938,226.8906 C2590.0938,227.2813 2589.7656,227.7344 2589.1875,228.1406 C2588.4375,228.6875 2587.2813,228.9844 2586.0625,228.9844 C2583.1719,228.9844 2581.0625,227.0938 2581.0625,224.5156 L2581.0625,223.3906 C2581.0625,220.6719 2583.0625,218.5938 2585.6875,218.5938 C2586.5625,218.5938 2587.1563,218.7344 2588.0938,219.1719 Z "/><text fill="#000000" font-family="sans-serif" font-size="12" lengthAdjust="spacingAndGlyphs" textLength="64" x="2606.25" y="227.6543">_AppState</text><line style="stroke: #A80036; stroke-width: 1.5;" x1="2539.5" x2="2704.5" y1="239.5" y2="239.5"/><rect fill="none" height="6" style="stroke: #C82930; stroke-width: 1.0;" width="6" x="2546.5" y="247.5"/><text fill="#000000" font-family="sans-serif" font-size="11" lengthAdjust="spacingAndGlyphs" textLength="110" x="2558.5" y="253.7104">List&lt;Widget&gt; _tabs</text><rect fill="none" height="6" style="stroke: #C82930; stroke-width: 1.0;" width="6" x="2546.5" y="260.3047"/><text fill="#000000" font-family="sans-serif" font-size="11" lengthAdjust="spacingAndGlyphs" textLength="141" x="2558.5" y="266.5151">TabController _controller</text><line style="stroke: #A80036; stroke-width: 1.5;" x1="2539.5" x2="2704.5" y1="273.1094" y2="273.1094"/><ellipse cx="2549.5" cy="284.1094" fill="#84BE84" rx="3" ry="3" style="stroke: #038048; stroke-width: 1.0;"/><text fill="#000000" font-family="sans-serif" font-size="11" lengthAdjust="spacingAndGlyphs" textLength="82" x="2558.5" y="287.3198">void initState()</text><ellipse cx="2549.5" cy="296.9141" fill="#84BE84" rx="3" ry="3" style="stroke: #038048; stroke-width: 1.0;"/><text fill="#000000" font-family="sans-serif" font-size="11" lengthAdjust="spacingAndGlyphs" textLength="80" x="2558.5" y="300.1245">void dispose()</text><ellipse cx="2549.5" cy="309.7188" fill="#84BE84" rx="3" ry="3" style="stroke: #038048; stroke-width: 1.0;"/><text fill="#000000" font-family="sans-serif" font-size="11" lengthAdjust="spacingAndGlyphs" textLength="76" x="2558.5" y="312.9292">Widget build()</text><!--MD5=[d8f67b32f0b205d0262eb122e10a7c04]
class flutter::src::material::tab_controller.dart::TabController--><rect fill="#FEFECE" filter="url(#f102hiuga5xwe0)" height="48" id="flutter::src::material::tab_controller.dart::TabController" style="stroke: #A80036; stroke-width: 1.5;" width="116" x="2564" y="420"/><ellipse cx="2579" cy="436" fill="#ADD1B2" rx="11" ry="11" style="stroke: #A80036; stroke-width: 1.0;"/><path d="M2581.3438,431.6719 L2581.5156,431.75 C2581.7344,431.4375 2581.9375,431.3438 2582.2344,431.3438 C2582.5313,431.3438 2582.8125,431.4844 2582.9688,431.75 C2583.0625,431.9063 2583.0781,432.0313 2583.0781,432.4688 L2583.0781,433.8906 C2583.0781,434.3125 2583.0469,434.5 2582.9375,434.6563 C2582.7656,434.875 2582.5,435.0156 2582.2344,435.0156 C2582.0156,435.0156 2581.7813,434.9063 2581.6406,434.7656 C2581.5,434.6406 2581.4688,434.5156 2581.4063,434.1094 C2581.3125,433.7031 2581.1406,433.4844 2580.6563,433.2031 C2580.1875,432.9531 2579.5781,432.7969 2579,432.7969 C2577.2656,432.7969 2576.0156,434.1094 2576.0156,435.8906 L2576.0156,436.9844 C2576.0156,438.6875 2577.3125,439.7813 2579.3594,439.7813 C2580.125,439.7813 2580.8125,439.6563 2581.2344,439.3906 C2581.4219,439.2969 2581.4219,439.2969 2581.875,438.8125 C2582.0625,438.625 2582.2656,438.5469 2582.4844,438.5469 C2582.9531,438.5469 2583.3438,438.9375 2583.3438,439.3906 C2583.3438,439.7813 2583.0156,440.2344 2582.4375,440.6406 C2581.6875,441.1875 2580.5313,441.4844 2579.3125,441.4844 C2576.4219,441.4844 2574.3125,439.5938 2574.3125,437.0156 L2574.3125,435.8906 C2574.3125,433.1719 2576.3125,431.0938 2578.9375,431.0938 C2579.8125,431.0938 2580.4063,431.2344 2581.3438,431.6719 Z "/><text fill="#000000" font-family="sans-serif" font-size="12" lengthAdjust="spacingAndGlyphs" textLength="84" x="2593" y="440.1543">TabController</text><line style="stroke: #A80036; stroke-width: 1.5;" x1="2565" x2="2679" y1="452" y2="452"/><line style="stroke: #A80036; stroke-width: 1.5;" x1="2565" x2="2679" y1="460" y2="460"/><!--MD5=[7942e143110fea4fe2d1066f7f0b4e4c]
class flutter::src::widgets::ticker_provider.dart::SingleTickerProviderStateMixin<T>--><rect fill="#FEFECE" filter="url(#f102hiuga5xwe0)" height="48" id="flutter::src::widgets::ticker_provider.dart::SingleTickerProviderStateMixin&lt;T&gt;" style="stroke: #A80036; stroke-width: 1.5;" width="249" x="2497.5" y="59"/><ellipse cx="2512.5" cy="75" fill="#ADD1B2" rx="11" ry="11" style="stroke: #A80036; stroke-width: 1.0;"/><path d="M2514.8438,70.6719 L2515.0156,70.75 C2515.2344,70.4375 2515.4375,70.3438 2515.7344,70.3438 C2516.0313,70.3438 2516.3125,70.4844 2516.4688,70.75 C2516.5625,70.9063 2516.5781,71.0313 2516.5781,71.4688 L2516.5781,72.8906 C2516.5781,73.3125 2516.5469,73.5 2516.4375,73.6563 C2516.2656,73.875 2516,74.0156 2515.7344,74.0156 C2515.5156,74.0156 2515.2813,73.9063 2515.1406,73.7656 C2515,73.6406 2514.9688,73.5156 2514.9063,73.1094 C2514.8125,72.7031 2514.6406,72.4844 2514.1563,72.2031 C2513.6875,71.9531 2513.0781,71.7969 2512.5,71.7969 C2510.7656,71.7969 2509.5156,73.1094 2509.5156,74.8906 L2509.5156,75.9844 C2509.5156,77.6875 2510.8125,78.7813 2512.8594,78.7813 C2513.625,78.7813 2514.3125,78.6563 2514.7344,78.3906 C2514.9219,78.2969 2514.9219,78.2969 2515.375,77.8125 C2515.5625,77.625 2515.7656,77.5469 2515.9844,77.5469 C2516.4531,77.5469 2516.8438,77.9375 2516.8438,78.3906 C2516.8438,78.7813 2516.5156,79.2344 2515.9375,79.6406 C2515.1875,80.1875 2514.0313,80.4844 2512.8125,80.4844 C2509.9219,80.4844 2507.8125,78.5938 2507.8125,76.0156 L2507.8125,74.8906 C2507.8125,72.1719 2509.8125,70.0938 2512.4375,70.0938 C2513.3125,70.0938 2513.9063,70.2344 2514.8438,70.6719 Z "/><text fill="#000000" font-family="sans-serif" font-size="12" lengthAdjust="spacingAndGlyphs" textLength="217" x="2526.5" y="79.1543">SingleTickerProviderStateMixin&lt;T&gt;</text><line style="stroke: #A80036; stroke-width: 1.5;" x1="2498.5" x2="2745.5" y1="91" y2="91"/><line style="stroke: #A80036; stroke-width: 1.5;" x1="2498.5" x2="2745.5" y1="99" y2="99"/><!--MD5=[b0e3bf8bcf21a0cc634136595f6b4143]
reverse link flutter::src::widgets::localizations.dart::LocalizationsDelegate<T> to queuetodo::localization.dart::LocalizationDelegate--><path d="M349,127.446 C349,155.703 349,192.363 349,220.357 " fill="none" id="flutter::src::widgets::localizations.dart::LocalizationsDelegate&lt;T&gt;&lt;-queuetodo::localization.dart::LocalizationDelegate" style="stroke: #A80036; stroke-width: 1.0;"/><polygon fill="none" points="342,127.336,349,107.336,356,127.336,342,127.336" style="stroke: #A80036; stroke-width: 1.0;"/><!--MD5=[adaf517bdb29acfb54153c88652b5e4e]
reverse link queuetodo::localization.dart::Localization to dart::ui::Locale--><path d="M136,326.28 C136,358.598 136,396.241 136,419.8472 " fill="none" id="queuetodo::localization.dart::Localization&lt;-dart::ui::Locale" style="stroke: #A80036; stroke-width: 1.0;"/><polygon fill="#FFFFFF" points="136,313.276,132,319.276,136,325.276,140,319.276,136,313.276" style="stroke: #A80036; stroke-width: 1.0;"/><!--MD5=[78657483182f8f45d3ca1c41e4ae1d66]
reverse link flutter::src::widgets::framework.dart::StatefulWidget to queuetodo::tabs::queue_display.dart::QueueDisplay--><path d="M1381.86,117.521 C1371.75,123.028 1360.85,127.932 1350,131 C1307.12,143.125 990.77,123.467 949,139 C897.826,158.03 851.583,202.662 824.63,232.726 " fill="none" id="flutter::src::widgets::framework.dart::StatefulWidget&lt;-queuetodo::tabs::queue_display.dart::QueueDisplay" style="stroke: #A80036; stroke-width: 1.0;"/><polygon fill="none" points="1378.27,111.511,1399.02,107.224,1385.47,123.516,1378.27,111.511" style="stroke: #A80036; stroke-width: 1.0;"/><!--MD5=[d171756ca2ebe3aa3c9d9f4dc1c9331a]
reverse link queuetodo::tabs::queue_display.dart::_QueueDisplayState to dart::collection::Queue<Task>--><path d="M571,358.225 C571,381.107 571,403.5958 571,419.6549 " fill="none" id="queuetodo::tabs::queue_display.dart::_QueueDisplayState&lt;-dart::collection::Queue&lt;Task&gt;" style="stroke: #A80036; stroke-width: 1.0;"/><polygon fill="#FFFFFF" points="571,345.133,567,351.133,571,357.133,575,351.133,571,345.133" style="stroke: #A80036; stroke-width: 1.0;"/><!--MD5=[f731f2e1614566b18eafb5a171750f1a]
reverse link flutter::src::widgets::framework.dart::State<T> to queuetodo::tabs::queue_display.dart::_QueueDisplayState--><path d="M1219.02,83.598 C1080.21,83.79 766.303,89.835 673,139 C653.565,149.241 636.411,164.923 621.982,181.711 " fill="none" id="flutter::src::widgets::framework.dart::State&lt;T&gt;&lt;-queuetodo::tabs::queue_display.dart::_QueueDisplayState" style="stroke: #A80036; stroke-width: 1.0;"/><polygon fill="none" points="1219.35,76.598,1239.35,83.611,1219.34,90.598,1219.35,76.598" style="stroke: #A80036; stroke-width: 1.0;"/><!--MD5=[54878c8f60ce5fb6cc18f0aa59118693]
reverse link flutter::src::widgets::framework.dart::StatelessWidget to queuetodo::tabs::usage.dart::Usage--><path d="M1617.93,125.073 C1637.13,158.017 1663.61,203.469 1680.77,232.921 " fill="none" id="flutter::src::widgets::framework.dart::StatelessWidget&lt;-queuetodo::tabs::usage.dart::Usage" style="stroke: #A80036; stroke-width: 1.0;"/><polygon fill="none" points="1611.62,128.141,1607.6,107.336,1623.71,121.093,1611.62,128.141" style="stroke: #A80036; stroke-width: 1.0;"/><!--MD5=[72c9e8f65acfaf28511349b3898d5a46]
reverse link flutter::src::widgets::framework.dart::StatelessWidget to queuetodo::tabs::about.dart::About--><path d="M1681.43,85.49 C1807.35,88.964 2032.39,100.529 2103,139 C2134.13,155.962 2159.2,187.012 2176.46,213.734 " fill="none" id="flutter::src::widgets::framework.dart::StatelessWidget&lt;-queuetodo::tabs::about.dart::About" style="stroke: #A80036; stroke-width: 1.0;"/><polygon fill="none" points="1681.18,92.486,1661.36,84.982,1681.53,78.491,1681.18,92.486" style="stroke: #A80036; stroke-width: 1.0;"/><!--MD5=[a4a4e63614ae98c3f305a6ce3eaeee1d]
reverse link flutter::src::widgets::framework.dart::StatelessWidget to queuetodo::tabs::about.dart::_AboutTile--><path d="M1680.51,108.664 C1707.89,117.308 1738.03,127.706 1765,139 C1816.72,160.662 1872.39,189.508 1916.66,213.875 " fill="none" id="flutter::src::widgets::framework.dart::StatelessWidget&lt;-queuetodo::tabs::about.dart::_AboutTile" style="stroke: #A80036; stroke-width: 1.0;"/><polygon fill="none" points="1678.19,115.275,1661.14,102.693,1682.31,101.897,1678.19,115.275" style="stroke: #A80036; stroke-width: 1.0;"/><!--MD5=[85a2b599a517fe1ae53a04d9c6a9bdf1]
reverse link flutter::src::widgets::framework.dart::StatefulWidget to queuetodo::task.dart::Task--><path d="M1390.1,121.254 C1383.98,127.134 1377.78,133.191 1372,139 C1358.41,152.656 1344.18,167.409 1330.53,181.804 " fill="none" id="flutter::src::widgets::framework.dart::StatefulWidget&lt;-queuetodo::task.dart::Task" style="stroke: #A80036; stroke-width: 1.0;"/><polygon fill="none" points="1385.54,115.937,1404.86,107.242,1395.18,126.089,1385.54,115.937" style="stroke: #A80036; stroke-width: 1.0;"/><!--MD5=[fdd04b280df97ba71814f150ecd7b3c2]
reverse link flutter::src::widgets::framework.dart::State<T> to queuetodo::task.dart::_TaskState--><path d="M1220.12,100.633 C1193.89,109.307 1164.43,121.784 1141,139 C1118.37,155.63 1098.25,178.87 1082.28,200.709 " fill="none" id="flutter::src::widgets::framework.dart::State&lt;T&gt;&lt;-queuetodo::task.dart::_TaskState" style="stroke: #A80036; stroke-width: 1.0;"/><polygon fill="none" points="1218.23,93.891,1239.4,94.726,1222.33,107.277,1218.23,93.891" style="stroke: #A80036; stroke-width: 1.0;"/><!--MD5=[36a406309a2206af97e2d34e89e27f87]
reverse link queuetodo::task.dart::_TaskTextField to flutter::src::widgets::editable_text.dart::TextEditingController--><path d="M1490,326.28 C1490,358.598 1490,396.241 1490,419.8472 " fill="none" id="queuetodo::task.dart::_TaskTextField&lt;-flutter::src::widgets::editable_text.dart::TextEditingController" style="stroke: #A80036; stroke-width: 1.0;"/><polygon fill="#FFFFFF" points="1490,313.276,1486,319.276,1490,325.276,1494,319.276,1490,313.276" style="stroke: #A80036; stroke-width: 1.0;"/><!--MD5=[cf218aac80c81f84e05ac1a829ec5f71]
reverse link flutter::src::widgets::framework.dart::StatelessWidget to queuetodo::task.dart::_TaskTextField--><path d="M1570.13,124.975 C1554.7,151.46 1534.54,186.059 1518.3,213.927 " fill="none" id="flutter::src::widgets::framework.dart::StatelessWidget&lt;-queuetodo::task.dart::_TaskTextField" style="stroke: #A80036; stroke-width: 1.0;"/><polygon fill="none" points="1564.29,121.093,1580.4,107.336,1576.38,128.141,1564.29,121.093" style="stroke: #A80036; stroke-width: 1.0;"/><!--MD5=[eb214a78e9f2f436745547974c57ac6a]
reverse link flutter::src::widgets::framework.dart::StatefulWidget to queuetodo::app.dart::App--><path d="M1477.85,117.458 C1488.03,123.018 1499.04,127.958 1510,131 C1552.4,142.764 2261.52,121.749 2302,139 C2346.87,158.123 2383.53,202.73 2404.33,232.764 " fill="none" id="flutter::src::widgets::framework.dart::StatefulWidget&lt;-queuetodo::app.dart::App" style="stroke: #A80036; stroke-width: 1.0;"/><polygon fill="none" points="1474.1,123.372,1460.58,107.057,1481.32,111.38,1474.1,123.372" style="stroke: #A80036; stroke-width: 1.0;"/><!--MD5=[0862a7f28212553bc6fc0bb955c9aa2d]
reverse link queuetodo::app.dart::_AppState to flutter::src::material::tab_controller.dart::TabController--><path d="M2622,332.836 C2622,363.476 2622,397.602 2622,419.6356 " fill="none" id="queuetodo::app.dart::_AppState&lt;-flutter::src::material::tab_controller.dart::TabController" style="stroke: #A80036; stroke-width: 1.0;"/><polygon fill="#FFFFFF" points="2622,319.512,2618,325.512,2622,331.512,2626,325.512,2622,319.512" style="stroke: #A80036; stroke-width: 1.0;"/><!--MD5=[e8a25db8dcb82db94d4c3d0e0d2011fc]
reverse link flutter::src::widgets::framework.dart::State<T> to queuetodo::app.dart::_AppState--><path d="M1326.39,118.873 C1334.12,123.842 1342.47,128.207 1351,131 C1381.89,141.114 2491.68,124.979 2521,139 C2551.11,153.399 2575.25,181.606 2592.37,207.431 " fill="none" id="flutter::src::widgets::framework.dart::State&lt;T&gt;&lt;-queuetodo::app.dart::_AppState" style="stroke: #A80036; stroke-width: 1.0;"/><polygon fill="none" points="1322.2,124.482,1310.19,107.028,1330.46,113.181,1322.2,124.482" style="stroke: #A80036; stroke-width: 1.0;"/><!--MD5=[b8440d5b3783d8b8211d2857fbf3a474]
reverse link flutter::src::widgets::ticker_provider.dart::SingleTickerProviderStateMixin<T> to queuetodo::app.dart::_AppState--><path d="M2622,127.392 C2622,151.424 2622,181.547 2622,207.248 " fill="none" id="flutter::src::widgets::ticker_provider.dart::SingleTickerProviderStateMixin&lt;T&gt;&lt;-queuetodo::app.dart::_AppState" style="stroke: #A80036; stroke-width: 1.0;"/><polygon fill="none" points="2615,127.336,2622,107.336,2629,127.336,2615,127.336" style="stroke: #A80036; stroke-width: 1.0;"/><!--MD5=[469d74a977968624915c71ed6d80b78f]
@startuml
set namespaceSeparator ::

class "queuetodo::localization.dart::LocalizationDelegate" {
  +Future load()
  +bool isSupported()
  +bool shouldReload()
}

"flutter::src::widgets::localizations.dart::LocalizationsDelegate<T>" <|- - "queuetodo::localization.dart::LocalizationDelegate"

class "queuetodo::localization.dart::Localization" {
  +Locale locale
  +Map<String, dynamic> words
  {static} +Localization of()
  +Future load()
}

"queuetodo::localization.dart::Localization" o- - "dart::ui::Locale"

class "queuetodo::tabs::queue_display.dart::QueueDisplay" {
  +_QueueDisplayState createState()
}

"flutter::src::widgets::framework.dart::StatefulWidget" <|- - "queuetodo::tabs::queue_display.dart::QueueDisplay"

class "queuetodo::tabs::queue_display.dart::_QueueDisplayState" {
  {static} -int _tasksMax
  -Queue<Task> _tasks
  +void initState()
  +Widget build()
  -Widget _queueButton()
  -void _showQueueDialog()
  -void _saveTasks()
  -void _popTask()
  -void _pushTask()
}

"queuetodo::tabs::queue_display.dart::_QueueDisplayState" o- - "dart::collection::Queue<Task>"
"flutter::src::widgets::framework.dart::State<T>" <|- - "queuetodo::tabs::queue_display.dart::_QueueDisplayState"

class "queuetodo::tabs::usage.dart::Usage" {
  +Widget build()
}

"flutter::src::widgets::framework.dart::StatelessWidget" <|- - "queuetodo::tabs::usage.dart::Usage"

class "queuetodo::tabs::about.dart::About" {
  -String _authorUrl
  -String _repoUrl
  -String _semanticVersion
  +Widget build()
}

"flutter::src::widgets::framework.dart::StatelessWidget" <|- - "queuetodo::tabs::about.dart::About"

class "queuetodo::tabs::about.dart::_AboutTile" {
  +String url
  +String title
  +Widget build()
  -void _openUrlInBrowser()
}

"flutter::src::widgets::framework.dart::StatelessWidget" <|- - "queuetodo::tabs::about.dart::_AboutTile"

class "queuetodo::task.dart::Task" {
  +int maxDescriptionLength
  +int maxTitleLength
  +dynamic descriptionController
  +dynamic titleController
  +DateTime creationTimestamp
  +DateTime lastModified
  +Function removeTask
  +Function saveConfig
  +_TaskState createState()
}

"flutter::src::widgets::framework.dart::StatefulWidget" <|- - "queuetodo::task.dart::Task"

class "queuetodo::task.dart::_TaskState" {
  -DateTime _lastModified
  -String _description
  -String _title
  +void initState()
  +Widget build()
  -String _formatDate()
}

"flutter::src::widgets::framework.dart::State<T>" <|- - "queuetodo::task.dart::_TaskState"

class "queuetodo::task.dart::_TaskTextField" {
  +int maxLength
  +String hintText
  +TextEditingController controller
  +Widget build()
}

"queuetodo::task.dart::_TaskTextField" o- - "flutter::src::widgets::editable_text.dart::TextEditingController"
"flutter::src::widgets::framework.dart::StatelessWidget" <|- - "queuetodo::task.dart::_TaskTextField"

class "queuetodo::app.dart::App" {
  +_AppState createState()
}

"flutter::src::widgets::framework.dart::StatefulWidget" <|- - "queuetodo::app.dart::App"

class "queuetodo::app.dart::_AppState" {
  -List<Widget> _tabs
  -TabController _controller
  +void initState()
  +void dispose()
  +Widget build()
}

"queuetodo::app.dart::_AppState" o- - "flutter::src::material::tab_controller.dart::TabController"
"flutter::src::widgets::framework.dart::State<T>" <|- - "queuetodo::app.dart::_AppState"
"flutter::src::widgets::ticker_provider.dart::SingleTickerProviderStateMixin<T>" <|- - "queuetodo::app.dart::_AppState"
@enduml

PlantUML version 1.2020.06(Sun Apr 05 12:38:32 UTC 2020)
(GPL source distribution)
Java Runtime: Java(TM) SE Runtime Environment
JVM: Java HotSpot(TM) 64-Bit Server VM
Java Version: 1.7.0_25-b15
Operating System: Linux
Default Encoding: UTF-8
Language: en
Country: US
--></g></svg>