<?xml version="1.0" encoding="UTF-8" standalone="no"?>
<svg
   xmlns:dc="http://purl.org/dc/elements/1.1/"
   xmlns:cc="http://creativecommons.org/ns#"
   xmlns:rdf="http://www.w3.org/1999/02/22-rdf-syntax-ns#"
   xmlns:svg="http://www.w3.org/2000/svg"
   xmlns="http://www.w3.org/2000/svg"
   xmlns:sodipodi="http://sodipodi.sourceforge.net/DTD/sodipodi-0.dtd"
   xmlns:inkscape="http://www.inkscape.org/namespaces/inkscape"
   inkscape:version="0.92.3 (2405546, 2018-03-11)"
   sodipodi:docname="icon.svg"
   width="210mm"
   height="297mm"
   viewBox="0 0 210 297"
   version="1.1"
   id="svg8">
  <sodipodi:namedview
     inkscape:current-layer="svg8"
     inkscape:window-maximized="1"
     inkscape:window-y="30"
     inkscape:window-x="0"
     inkscape:cy="493.76384"
     inkscape:cx="-394.42915"
     inkscape:zoom="0.5946522"
     showgrid="false"
     id="namedview12"
     inkscape:window-height="1017"
     inkscape:window-width="1920"
     inkscape:pageshadow="2"
     inkscape:pageopacity="0"
     guidetolerance="10"
     gridtolerance="10"
     objecttolerance="10"
     borderopacity="1"
     bordercolor="#666666"
     pagecolor="#ffffff" />
  <defs
     id="defs2" />
  <metadata
     id="metadata5">
    <rdf:RDF>
      <cc:Work
         rdf:about="">
        <dc:format>image/svg+xml</dc:format>
        <dc:type
           rdf:resource="http://purl.org/dc/dcmitype/StillImage" />
        <dc:title />
      </cc:Work>
    </rdf:RDF>
  </metadata>
  <g
     inkscape:export-ydpi="96"
     inkscape:export-xdpi="96"
     style="fill:#ffd54f;fill-opacity:1"
     id="layer1">
    <rect
       style="fill:#ffd54f;fill-opacity:1;stroke-width:0.23249651"
       id="rect815"
       width="135.46666"
       height="135.46666"
       x="16.933332"
       y="144.60001" />
  </g>
  <g
     inkscape:export-ydpi="96"
     inkscape:export-xdpi="96"
     style="fill:#00b0ff;fill-opacity:1"
     id="layer2">
    <path
       id="rect837"
       d="M 33.866665,184.111114444 A 5.64444444433,5.64444444433,0,0,1,39.5111094443,178.46667 L 45.1555525557,178.46667 A 5.64444444433,5.64444444433,0,0,1,50.799997,184.111114444 L 50.799997,240.555555556 A 5.64444444433,5.64444444433,0,0,1,45.1555525557,246.2 L 39.5111094443,246.2 A 5.64444444433,5.64444444433,0,0,1,33.866665,240.555555556 Z "
       style="fill:#00b0ff;fill-opacity:1;stroke-width:0.19580252" />
    <path
       id="rect837-5"
       d="M 62.441666,201.044454444 A 5.64444444433,5.64444444433,0,0,1,68.0861104443,195.40001 L 73.7305535557,195.40001 A 5.64444444433,5.64444444433,0,0,1,79.374998,201.044454444 L 79.374998,257.488895556 A 5.64444444433,5.64444444433,0,0,1,73.7305535557,263.13334 L 68.0861104443,263.13334 A 5.64444444433,5.64444444433,0,0,1,62.441666,257.488895556 Z "
       style="fill:#00b0ff;fill-opacity:1;stroke-width:0.19580252" />
    <path
       id="rect837-5-3"
       d="M 91.01667,184.111114444 A 5.64444444433,5.64444444433,0,0,1,96.6611144443,178.46667 L 102.305555556,178.46667 A 5.64444444433,5.64444444433,0,0,1,107.95,184.111114444 L 107.95,240.555555556 A 5.64444444433,5.64444444433,0,0,1,102.305555556,246.2 L 96.6611144443,246.2 A 5.64444444433,5.64444444433,0,0,1,91.01667,240.555555556 Z "
       style="fill:#00b0ff;fill-opacity:1;stroke-width:0.19580252" />
    <path
       id="rect837-5-5"
       d="M 118.53333,167.177784444 A 5.64444444433,5.64444444433,0,0,1,124.177774444,161.53334 L 129.822225556,161.53334 A 5.64444444433,5.64444444433,0,0,1,135.46667,167.177784444 L 135.46667,223.622225556 A 5.64444444433,5.64444444433,0,0,1,129.822225556,229.26667 L 124.177774444,229.26667 A 5.64444444433,5.64444444433,0,0,1,118.53333,223.622225556 Z "
       style="fill:#00b0ff;fill-opacity:1;stroke-width:0.19580252" />
  </g>
</svg>
